#!OML:ASF X:\für Bonn\!DataBase\2005_08_10_Bjorn_Final\c3d\bjorn.ASF
:FULLY-SPECIFIED
:DEGREES
94
root 0.665959 19.6311 4.14824 -202.76 -44.6081 -157.398
lowerback 35.7527 -2.39131 -3.84824
upperback 18.3191 -8.6438 -3.78152
thorax 2.19001 -6.14825 0.471981
lowerneck -10.9436 -8.50456 -6.31359
upperneck 5.12085 -14.9612 27.4189
head 6.21377 -6.91178 8.31556
rclavicle -6.67916e-014 -3.18055e-015
rhumerus -47.4485 -5.22588 -87.2885
rradius 30.6392
rwrist 15.4786
rhand -10.5102 12.4015
rfingers 7.12502
rthumb 15.4923 -16.9978
lclavicle -6.67916e-014 -3.18055e-015
lhumerus 62.9618 -32.2305 79.268
lradius 95.8315
lwrist -6.65951
lhand -41.981 -22.8264
lfingers 7.12502
lthumb -14.8768 6.61945
rfemur -92.1759 -10.4511 17.9608
rtibia 127.298
rfoot 1.67495 16.1364
rtoes -23.492
lfemur -7.22183 -8.87753 -2.04152
ltibia 20.2738
lfoot 4.16313 -24.4798
ltoes 4.81858
95
root 0.688354 19.6423 4.1541 -203.376 -44.8123 -156.653
lowerback 36.2028 -2.37943 -3.53444
upperback 18.511 -8.62451 -3.68155
thorax 2.23236 -6.15402 0.424487
lowerneck -10.4695 -8.50598 -6.42199
upperneck 4.64361 -14.928 27.8814
head 6.03378 -6.97491 8.51397
rclavicle -5.08889e-014 1.7175e-013
rhumerus -47.8775 -5.06508 -87.3058
rradius 30.6754
rwrist 15.1
rhand -10.6489 12.3311
rfingers 7.12502
rthumb 15.3587 -17.0785
lclavicle -5.08889e-014 1.7175e-013
lhumerus 63.8277 -32.5735 78.6272
lradius 95.8247
lwrist -5.84722
lhand -42.1772 -22.66
lfingers 7.12502
lthumb -15.0658 6.77173
rfemur -92.8152 -10.4284 18.2876
rtibia 127.289
rfoot 1.66487 16.0808
rtoes -23.9868
lfemur -7.19717 -9.07749 -1.53441
ltibia 19.9824
lfoot 4.51836 -24.5623
ltoes 5.11121
96
root 0.709527 19.6509 4.15998 -203.897 -44.9743 -155.972
lowerback 36.5885 -2.35294 -3.25994
upperback 18.6823 -8.5867 -3.58113
thorax 2.28024 -6.14992 0.388672
lowerneck -10.1001 -8.50144 -6.44421
upperneck 4.26664 -14.902 28.2404
head 5.88757 -7.02635 8.65807
rclavicle 9.54166e-014 1.01778e-013
rhumerus -48.2609 -4.97845 -87.2784
rradius 30.6199
rwrist 14.8646
rhand -10.8249 12.2971
rfingers 7.12502
rthumb 15.1892 -17.1253
lclavicle 9.54166e-014 1.01778e-013
lhumerus 64.5578 -32.8798 78.1326
lradius 95.7948
lwrist -5.16578
lhand -42.3046 -22.633
lfingers 7.12502
lthumb -15.1885 6.78957
rfemur -93.4314 -10.3242 18.6405
rtibia 127.254
rfoot 1.5746 16.0457
rtoes -24.6064
lfemur -7.24516 -9.2933 -1.05963
ltibia 19.7869
lfoot 4.78733 -24.5739
ltoes 5.40288
97
root 0.729786 19.6521 4.16589 -204.393 -45.0885 -155.328
lowerback 36.9554 -2.31934 -2.97408
upperback 18.8367 -8.53145 -3.50111
thorax 2.31291 -6.13271 0.321572
lowerneck -9.81495 -8.48533 -6.39961
upperneck 3.96923 -14.8936 28.591
head 5.77869 -7.0761 8.78308
rclavicle 1.08139e-013 1.90833e-013
rhumerus -48.6135 -4.9422 -87.2778
rradius 30.494
rwrist 14.7077
rhand -11.0159 12.2316
rfingers 7.12502
rthumb 15.0052 -17.2047
lclavicle 1.08139e-013 1.90833e-013
lhumerus 65.2098 -33.1625 77.6761
lradius 95.7383
lwrist -4.62911
lhand -42.4447 -22.6375
lfingers 7.12502
lthumb -15.3235 6.77473
rfemur -93.9354 -10.1863 19.0307
rtibia 127.152
rfoot 1.45427 16.018
rtoes -25.0964
lfemur -7.35519 -9.44787 -0.603032
ltibia 19.728
lfoot 4.93525 -24.6455
ltoes 5.50911
98
root 0.747854 19.6501 4.17244 -204.749 -45.1643 -154.825
lowerback 37.2691 -2.24328 -2.78776
upperback 18.969 -8.44557 -3.39833
thorax 2.35447 -6.10688 0.316241
lowerneck -9.61068 -8.49502 -6.36457
upperneck 3.73097 -14.9097 28.8541
head 5.69864 -7.12469 8.87313
rclavicle 9.54166e-015 -4.45278e-014
rhumerus -48.8793 -5.05385 -87.1314
rradius 30.2513
rwrist 14.7663
rhand -11.2086 12.186
rfingers 7.12502
rthumb 14.8195 -17.2641
lclavicle 9.54166e-015 -4.45278e-014
lhumerus 65.8007 -33.392 77.3319
lradius 95.6762
lwrist -4.19121
lhand -42.5773 -22.6724
lfingers 7.12502
lthumb -15.4512 6.73005
rfemur -94.4325 -10.0207 19.3432
rtibia 126.991
rfoot 1.39188 16.0369
rtoes -25.2407
lfemur -7.54248 -9.64933 -0.236966
ltibia 19.8128
lfoot 5.06009 -24.6135
ltoes 6.02939
99
root 0.765674 19.6448 4.17855 -204.976 -45.2238 -154.451
lowerback 37.5251 -2.14083 -2.66183
upperback 19.0764 -8.33482 -3.32312
thorax 2.38957 -6.06695 0.303803
lowerneck -9.39099 -8.49564 -6.33704
upperneck 3.50845 -14.9258 29.1567
head 5.6256 -7.17497 8.97989
rclavicle -9.54166e-015 -6.36111e-014
rhumerus -49.0829 -5.36041 -86.9144
rradius 29.876
rwrist 15.0289
rhand -11.3392 12.2073
rfingers 7.12502
rthumb 14.6937 -17.252
lclavicle -9.54166e-015 -6.36111e-014
lhumerus 66.2929 -33.599 77.0216
lradius 95.635
lwrist -3.85554
lhand -42.7267 -22.7012
lfingers 7.12502
lthumb -15.5952 6.69008
rfemur -94.9486 -9.87399 19.5932
rtibia 126.822
rfoot 1.35377 16.1033
rtoes -25.3155
lfemur -7.80518 -9.80937 0.0489971
ltibia 20.0056
lfoot 5.13584 -24.5663
ltoes 6.61653
100
root 0.782206 19.6374 4.18341 -205.184 -45.2937 -154.143
lowerback 37.8117 -2.02909 -2.59911
upperback 19.1697 -8.23364 -3.24597
thorax 2.40784 -6.03634 0.331097
lowerneck -9.26375 -8.48767 -6.22992
upperneck 3.37224 -14.9392 29.344
head 5.57633 -7.20822 9.02944
rclavicle 6.04305e-014 -1.90833e-014
rhumerus -49.2507 -5.7171 -86.6189
rradius 29.4552
rwrist 15.4421
rhand -11.3789 12.2799
rfingers 7.12502
rthumb 14.6554 -17.1822
lclavicle 6.04305e-014 -1.90833e-014
lhumerus 66.753 -33.7698 76.7664
lradius 95.5743
lwrist -3.65067
lhand -42.8766 -22.6335
lfingers 7.12502
lthumb -15.7395 6.74651
rfemur -95.3712 -9.8045 19.7804
rtibia 126.65
rfoot 1.38841 16.214
rtoes -24.9457
lfemur -8.04071 -10.0411 0.26542
ltibia 20.231
lfoot 5.10685 -24.5319
ltoes 7.02446
101
root 0.797695 19.6314 4.18799 -205.35 -45.3676 -153.869
lowerback 38.0748 -1.91632 -2.57611
upperback 19.2434 -8.1351 -3.14581
thorax 2.42012 -6.00871 0.402697
lowerneck -9.16131 -8.49022 -6.14974
upperneck 3.24853 -14.9566 29.4988
head 5.53471 -7.23927 9.07079
rclavicle -5.725e-014 8.5875e-014
rhumerus -49.3963 -6.07294 -86.2772
rradius 29.0133
rwrist 15.9051
rhand -11.3501 12.4201
rfingers 7.12502
rthumb 14.6832 -17.04
lclavicle -5.725e-014 8.5875e-014
lhumerus 67.1455 -33.8941 76.5828
lradius 95.5536
lwrist -3.48326
lhand -43.0552 -22.5511
lfingers 7.12502
lthumb -15.9115 6.81525
rfemur -95.756 -9.70101 19.9403
rtibia 126.46
rfoot 1.52392 16.3225
rtoes -24.1215
lfemur -8.29034 -10.3207 0.458647
ltibia 20.458
lfoot 5.14499 -24.4455
ltoes 7.78379
102
root 0.810816 19.6279 4.19165 -205.49 -45.3968 -153.613
lowerback 38.3181 -1.79376 -2.56379
upperback 19.2983 -8.02233 -3.04443
thorax 2.41888 -5.97267 0.477145
lowerneck -9.13786 -8.5025 -6.01655
upperneck 3.21473 -15.0024 29.572
head 5.52703 -7.26845 9.06722
rclavicle -3.18055e-015 -4.45278e-014
rhumerus -49.5353 -6.49107 -85.8798
rradius 28.5607
rwrist 16.5061
rhand -11.2713 12.631
rfingers 7.12502
rthumb 14.7592 -16.8235
lclavicle -3.18055e-015 -4.45278e-014
lhumerus 67.462 -33.9874 76.42
lradius 95.6061
lwrist -3.36189
lhand -43.2201 -22.3423
lfingers 7.12502
lthumb -16.0703 7.01128
rfemur -96.0837 -9.49607 20.1217
rtibia 126.241
rfoot 1.70123 16.4124
rtoes -23.2275
lfemur -8.50877 -10.5665 0.651902
ltibia 20.656
lfoot 5.1391 -24.3922
ltoes 8.31597
103
root 0.823035 19.6245 4.19505 -205.586 -45.4452 -153.409
lowerback 38.5618 -1.67116 -2.59911
upperback 19.3343 -7.91958 -2.94661
thorax 2.40127 -5.94233 0.576632
lowerneck -9.13698 -8.50538 -5.82022
upperneck 3.19851 -15.0416 29.5989
head 5.51739 -7.29119 9.03618
rclavicle 3.81667e-014 9.54166e-015
rhumerus -49.6294 -6.88786 -85.4871
rradius 28.0838
rwrist 17.1179
rhand -11.0635 12.8671
rfingers 7.12502
rthumb 14.9593 -16.5727
lclavicle 3.81667e-014 9.54166e-015
lhumerus 67.7169 -34.086 76.2871
lradius 95.7316
lwrist -3.23852
lhand -43.3273 -22.1028
lfingers 7.12502
lthumb -16.1735 7.24242
rfemur -96.3678 -9.31501 20.2784
rtibia 126.015
rfoot 1.90894 16.4022
rtoes -22.5561
lfemur -8.71544 -10.8151 0.801893
ltibia 20.8176
lfoot 5.21176 -24.3161
ltoes 9.12384
104
root 0.833701 19.6223 4.19883 -205.646 -45.469 -153.254
lowerback 38.7817 -1.54292 -2.68586
upperback 19.3595 -7.8231 -2.84056
thorax 2.38551 -5.91878 0.711333
lowerneck -9.12926 -8.49135 -5.6152
upperneck 3.16258 -15.038 29.5663
head 5.48496 -7.29443 8.98895
rclavicle -8.90555e-014 -1.49486e-013
rhumerus -49.6822 -7.22959 -85.0946
rradius 27.5984
rwrist 17.7319
rhand -10.7807 13.121
rfingers 7.12502
rthumb 15.2317 -16.2982
lclavicle -8.90555e-014 -1.49486e-013
lhumerus 67.9586 -34.1141 76.2097
lradius 95.8845
lwrist -3.11436
lhand -43.4123 -21.8431
lfingers 7.12502
lthumb -16.2554 7.49544
rfemur -96.6174 -9.07434 20.4198
rtibia 125.783
rfoot 2.10423 16.3627
rtoes -22.1139
lfemur -8.89281 -11.0289 0.916917
ltibia 20.9574
lfoot 5.237 -24.2143
ltoes 9.76582
